# xmcd CD database file generated by Grip 3.2.0
# 
# Track frame offsets:
#       150
#       17537
#       34582
#       49595
#       66115
#       82125
#       90507
#       104975
#       120322
#       143415
#       159980
# 
# Disc length: 2194 seconds
# 
# Revision: 3
# Processed by: cddbd v1.5.2PL0 Copyright (c) Steve Scherf et al.
# Submitted via: Grip 3.2.0
# 
DISCID=8208900b
DTITLE=Cat Stevens - Tea for the Tillerman
DYEAR=1970
DGENRE=Pop
TTITLE0=Where Do the Children Play
TTITLE1=Hard-Headed Woman
TTITLE2=Wild World
TTITLE3=Sad Lisa
TTITLE4=Miles From Nowhere
TTITLE5=But I Might Die Tonight
TTITLE6=Longer Boats
TTITLE7=Into White
TTITLE8=On the Road To Findout
TTITLE9=Father and Son
TTITLE10=Tea for the Tillerman
EXTD=ID3G:   0
EXTT0=
EXTT1=
EXTT2=
EXTT3=
EXTT4=
EXTT5=
EXTT6=
EXTT7=
EXTT8=
EXTT9=
EXTT10=
PLAYORDER=
